<svg width="24" height="24" viewBox="0 0 24 24" fill="none" xmlns="http://www.w3.org/2000/svg">
<g clip-path="url(#clip0_5_87)">
<path d="M13.0001 2.051V1C13.0001 0.734784 12.8947 0.48043 12.7072 0.292893C12.5196 0.105357 12.2653 0 12.0001 0C11.7348 0 11.4805 0.105357 11.293 0.292893C11.1054 0.48043 11.0001 0.734784 11.0001 1V2.051C8.98683 2.23149 7.06249 2.9642 5.43905 4.16842C3.81561 5.37264 2.55609 7.00161 1.79925 8.87588C1.0424 10.7501 0.817619 12.797 1.14966 14.7908C1.48169 16.7847 2.35766 18.6482 3.68106 20.176C3.15843 20.4345 2.72169 20.8387 2.42345 21.3397C2.1252 21.8407 1.97817 22.4173 2.00006 23C2.00006 23.2652 2.10542 23.5196 2.29295 23.7071C2.48049 23.8946 2.73485 24 3.00006 24C3.26528 24 3.51963 23.8946 3.70717 23.7071C3.8947 23.5196 4.00006 23.2652 4.00006 23C3.99175 22.6918 4.10241 22.3922 4.30908 22.1633C4.51575 21.9345 4.80258 21.794 5.11006 21.771C5.17885 21.7579 5.24594 21.7371 5.31006 21.709C7.2256 23.1947 9.5809 24.001 12.0051 24.001C14.4292 24.001 16.7845 23.1947 18.7001 21.709C18.7586 21.736 18.8195 21.7574 18.8821 21.773C19.1906 21.794 19.4791 21.9334 19.6874 22.162C19.8957 22.3906 20.0077 22.6908 20.0001 23C20.0001 23.2652 20.1054 23.5196 20.293 23.7071C20.4805 23.8946 20.7348 24 21.0001 24C21.2653 24 21.5196 23.8946 21.7072 23.7071C21.8947 23.5196 22.0001 23.2652 22.0001 23C22.022 22.4173 21.8749 21.8407 21.5767 21.3397C21.2784 20.8387 20.8417 20.4345 20.3191 20.176C21.6425 18.6482 22.5184 16.7847 22.8505 14.7908C23.1825 12.797 22.9577 10.7501 22.2009 8.87588C21.444 7.00161 20.1845 5.37264 18.5611 4.16842C16.9376 2.9642 15.0133 2.23149 13.0001 2.051ZM3.00006 13C3.00006 11.22 3.5279 9.47991 4.51684 7.99987C5.50577 6.51983 6.91138 5.36627 8.55591 4.68508C10.2004 4.0039 12.01 3.82567 13.7559 4.17293C15.5017 4.5202 17.1053 5.37737 18.364 6.63604C19.6227 7.89471 20.4799 9.49836 20.8271 11.2442C21.1744 12.99 20.9962 14.7996 20.315 16.4442C19.6338 18.0887 18.4802 19.4943 17.0002 20.4832C15.5202 21.4722 13.7801 22 12.0001 22C9.61401 21.9971 7.32651 21.0479 5.63932 19.3607C3.95212 17.6736 3.00297 15.3861 3.00006 13Z" fill="white"/>
<path d="M19.2148 -2.17429e-05C18.9496 -2.17429e-05 18.6952 0.105335 18.5077 0.292871C18.3201 0.480408 18.2148 0.734762 18.2148 0.999978C18.2148 1.26519 18.3201 1.51955 18.5077 1.70709C18.6952 1.89462 18.9496 1.99998 19.2148 1.99998C19.5635 1.97347 19.9139 2.01786 20.245 2.13046C20.5761 2.24306 20.881 2.42155 21.1412 2.65516C21.4015 2.88877 21.6117 3.17266 21.7592 3.48972C21.9068 3.80678 21.9886 4.15044 21.9998 4.49998C21.9998 4.76519 22.1051 5.01955 22.2927 5.20708C22.4802 5.39462 22.7346 5.49998 22.9998 5.49998C23.265 5.49998 23.5193 5.39462 23.7069 5.20708C23.8944 5.01955 23.9998 4.76519 23.9998 4.49998C23.987 3.88847 23.8524 3.28566 23.6038 2.72681C23.3552 2.16795 22.9977 1.66428 22.5521 1.24526C22.1066 0.826242 21.5819 0.500285 21.0089 0.286462C20.4358 0.0726399 19.8259 -0.0247541 19.2148 -2.17429e-05Z" fill="white"/>
<path d="M1.99999 4.49998C2.01114 4.15044 2.09296 3.80678 2.24051 3.48972C2.38807 3.17266 2.5983 2.88877 2.85854 2.65516C3.11879 2.42155 3.42364 2.24306 3.75473 2.13046C4.08582 2.01786 4.43629 1.97347 4.78499 1.99998C5.05021 1.99998 5.30456 1.89462 5.4921 1.70709C5.67964 1.51955 5.78499 1.26519 5.78499 0.999978C5.78499 0.734762 5.67964 0.480408 5.4921 0.292871C5.30456 0.105335 5.05021 -2.17429e-05 4.78499 -2.17429e-05C4.17385 -0.0247541 3.56392 0.0726399 2.99087 0.286462C2.41783 0.500285 1.89318 0.826242 1.44762 1.24526C1.00206 1.66428 0.644539 2.16795 0.395973 2.72681C0.147408 3.28566 0.0127886 3.88847 -7.62939e-06 4.49998C-7.62939e-06 4.76519 0.105349 5.01955 0.292886 5.20708C0.480422 5.39462 0.734776 5.49998 0.999992 5.49998C1.26521 5.49998 1.51956 5.39462 1.7071 5.20708C1.89464 5.01955 1.99999 4.76519 1.99999 4.49998Z" fill="white"/>
<path d="M13.0002 11.586V7C13.0002 6.73478 12.8948 6.48043 12.7073 6.29289C12.5197 6.10536 12.2654 6 12.0002 6C11.7349 6 11.4806 6.10536 11.2931 6.29289C11.1055 6.48043 11.0002 6.73478 11.0002 7V12C11.0002 12.2652 11.1056 12.5195 11.2932 12.707L14.2932 15.707C14.4818 15.8892 14.7344 15.99 14.9966 15.9877C15.2588 15.9854 15.5096 15.8802 15.695 15.6948C15.8804 15.5094 15.9856 15.2586 15.9878 14.9964C15.9901 14.7342 15.8893 14.4816 15.7072 14.293L13.0002 11.586Z" fill="white"/>
</g>
<defs>
<clipPath id="clip0_5_87">
<rect width="24" height="24" fill="white"/>
</clipPath>
</defs>
</svg>
